<svg width="898" height="830" viewBox="0 0 898 830" fill="none" xmlns="http://www.w3.org/2000/svg">
<path d="M448.924 531.985C387.982 531.985 337.146 492.041 325.078 438.968H122.338C136.669 593.299 276.505 714.388 446.812 714.388C617.12 714.388 757.107 593.299 771.287 438.968H572.771C560.703 492.181 509.867 531.985 448.924 531.985Z" fill="white"/>
<path d="M521.332 706.567C656.492 677.237 759.22 570.114 771.288 438.968H691.338C683.343 557.963 615.914 658.802 521.332 706.567Z" fill="#DFDFDF" fill-opacity="0.05"/>
<path d="M523.594 414.806C523.444 414.806 523.444 414.806 523.594 414.806C523.444 406.287 521.784 398.186 518.767 390.644C508.208 364.387 480.904 345.812 448.925 345.812C416.945 345.812 389.641 364.527 379.082 390.644C376.065 398.186 374.405 406.287 374.405 414.806H374.556C374.556 423.326 376.216 431.426 379.233 438.968C389.792 465.225 417.096 483.801 449.075 483.801C481.055 483.801 508.359 465.086 518.918 438.968C521.935 431.566 523.594 423.326 523.594 414.806Z" fill="white"/>
<path d="M451.037 115.224C621.495 115.224 761.331 236.314 775.511 390.644H572.771C560.703 337.571 509.867 297.627 448.925 297.627C387.982 297.627 337.146 337.571 325.078 390.644H126.562C140.892 236.314 280.729 115.224 451.037 115.224ZM518.767 390.644C521.784 398.186 523.444 406.286 523.444 414.806H523.595C523.595 423.326 521.935 431.426 518.918 438.968C508.359 465.225 481.055 483.801 449.075 483.801C417.096 483.801 389.792 465.086 379.233 438.968C376.216 431.426 374.556 423.326 374.556 414.806H374.406C374.406 406.286 376.065 398.186 379.082 390.644C389.641 364.387 416.945 345.811 448.925 345.811C480.904 345.811 508.208 364.527 518.767 390.644ZM446.813 714.528C276.354 714.528 136.518 593.438 122.338 439.108H325.078C337.146 492.181 387.982 532.125 448.925 532.125C509.867 532.125 560.703 492.181 572.771 439.108H771.438C757.108 593.298 617.271 714.528 446.813 714.528ZM448.925 57.6818C235.927 57.6818 63.2055 217.599 63.2055 414.806C63.2055 612.013 235.927 771.93 448.925 771.93C661.922 771.93 834.795 612.153 834.795 414.806C834.795 217.459 662.073 57.6818 448.925 57.6818Z" fill="black" fill-opacity="0.02"/>
</svg>
